<svg width="24" height="24" viewBox="0 0 24 24" fill="none" xmlns="http://www.w3.org/2000/svg">
<path d="M11.435 16.2802L11.435 16.2802L7.82313 17.749L8.10385 13.86C8.132 13.47 8.0067 13.0843 7.75464 12.7853L5.24169 9.80409L9.02701 8.86932C9.4067 8.77556 9.73475 8.53722 9.94125 8.20509L12 4.89389L14.0587 8.20509L14.908 7.67708L14.0587 8.20509C14.2652 8.53722 14.5933 8.77556 14.973 8.86932L18.7583 9.80409L16.2454 12.7853C15.9933 13.0843 15.868 13.47 15.8962 13.86L16.1769 17.749L12.565 16.2802L12.1883 17.2066L12.565 16.2802C12.2027 16.1329 11.7973 16.1329 11.435 16.2802ZM4.46096 9.99689L4.46157 9.99674C4.46137 9.99679 4.46117 9.99684 4.46096 9.99689L4.34109 9.51147L4.46096 9.99689Z" stroke="#605dec" stroke-width="2"/>
</svg>
