<svg width="24" height="24" viewBox="0 0 24 24" fill="none" xmlns="http://www.w3.org/2000/svg">
    <path d="M11.5754 3.68294C11.771 3.36828 12.229 3.36828 12.4246 3.68294L14.908 7.67708C14.9768 7.78779 15.0862 7.86723 15.2127 7.89849L19.7788 9.02605C20.1385 9.11488 20.28 9.55042 20.0412 9.83372L17.01 13.4298C16.9259 13.5295 16.8842 13.658 16.8936 13.788L17.2322 18.4791C17.2588 18.8486 16.8884 19.1178 16.5451 18.9782L12.1883 17.2066C12.0676 17.1575 11.9324 17.1575 11.8117 17.2066L7.45488 18.9782C7.11165 19.1178 6.74115 18.8486 6.76783 18.4791L7.10644 13.788C7.11583 13.658 7.07406 13.5295 6.99004 13.4298L3.95879 9.83372C3.71999 9.55042 3.86151 9.11488 4.22122 9.02605L8.78727 7.89849C8.91383 7.86723 9.02318 7.78779 9.09202 7.67708L11.5754 3.68294Z" fill="#605dec"/>
</svg>
